<?xml version="1.0" standalone="no"?>
<!DOCTYPE svg PUBLIC "-//W3C//DTD SVG 20010904//EN"
 "http://www.w3.org/TR/2001/REC-SVG-20010904/DTD/svg10.dtd">
<svg version="1.0" xmlns="http://www.w3.org/2000/svg"
 width="1066.000000pt" height="1066.000000pt" viewBox="0 0 1066.000000 1066.000000"
 preserveAspectRatio="xMidYMid meet">
<metadata>
Created by potrace 1.11, written by Peter Selinger 2001-2013
</metadata>
<g transform="translate(0.000000,1066.000000) scale(0.100000,-0.100000)"
fill="#000000" stroke="none">
<path d="M4999 9109 c12 -19 29 -51 39 -71 9 -21 20 -38 24 -38 5 0 8 -4 8
-10 0 -5 13 -38 29 -72 26 -57 42 -94 46 -108 1 -3 11 -36 23 -75 56 -185 46
-360 -29 -523 -59 -129 -118 -203 -362 -452 -198 -201 -209 -214 -261 -292
-20 -29 -39 -58 -43 -63 -37 -49 -104 -211 -107 -261 -1 -16 -5 -34 -7 -40 -3
-5 -5 -21 -4 -36 0 -16 0 -28 -1 -28 0 0 -12 9 -25 21 -13 11 -46 39 -73 62
-70 60 -96 85 -142 142 -44 52 -121 200 -144 272 -9 30 -17 40 -26 35 -13 -7
-80 -96 -151 -202 -21 -30 -41 -59 -45 -65 -55 -70 -258 -433 -258 -461 0 -29
-30 -30 -1752 -29 -951 1 -1728 0 -1728 -2 0 -1 17 -25 38 -53 39 -51 57 -103
69 -195 8 -61 9 -1320 1 -1392 -9 -78 -34 -142 -77 -199 l-38 -51 29 -34 c26
-31 53 -81 72 -134 17 -44 20 -179 19 -850 -1 -622 -3 -739 -17 -811 -6 -30
-53 -117 -76 -142 -12 -13 -20 -26 -17 -28 3 -3 756 -6 1674 -6 l1670 -2 23
-60 c28 -76 111 -248 145 -301 14 -22 28 -48 31 -57 4 -10 10 -18 15 -18 5 0
9 -5 9 -10 0 -6 5 -16 10 -23 6 -7 34 -44 63 -83 90 -123 190 -231 298 -324
28 -25 66 -57 83 -72 17 -16 34 -28 38 -28 3 0 13 -6 20 -13 62 -61 296 -190
493 -272 81 -34 302 -93 405 -109 19 -3 58 -9 85 -13 28 -5 140 -8 250 -8 181
0 250 4 340 20 90 16 143 27 171 36 17 5 41 12 54 14 13 2 39 10 59 17 20 7
38 13 41 13 70 13 443 191 470 224 6 7 40 29 60 38 8 4 17 9 20 13 3 3 34 28
70 55 65 49 111 90 199 175 57 57 151 159 151 165 0 5 24 35 46 59 5 6 40 56
76 111 81 124 176 308 212 414 l12 34 1672 -2 c925 -1 1672 3 1672 7 0 5 -8
16 -17 25 -17 15 -54 81 -69 122 -10 28 -13 42 -20 105 -8 71 -8 1463 1 1515
10 64 36 138 56 161 11 11 19 24 19 28 0 4 9 15 21 25 l21 17 -34 36 c-40 45
-75 133 -85 213 -9 77 -9 1310 0 1390 3 33 8 70 11 81 7 35 53 117 81 147 l26
27 -1518 1 c-835 0 -1643 1 -1796 1 l-277 0 -22 32 c-12 17 -27 36 -33 43 -5
6 -28 33 -50 59 -22 27 -58 64 -79 84 -150 135 -204 201 -259 312 -57 117 -85
238 -86 383 l-1 60 -66 -70 c-187 -197 -367 -538 -434 -823 -12 -54 -25 -74
-27 -43 -1 9 -11 46 -22 82 -12 35 -23 73 -26 84 -17 72 -38 165 -42 190 -8
40 -11 307 -4 320 6 12 10 28 15 70 2 17 9 58 15 93 7 35 14 75 16 90 2 15 6
47 9 72 20 148 24 204 21 280 -5 106 -11 138 -41 220 -57 151 -211 352 -337
439 -12 8 -29 22 -37 30 -71 70 -511 309 -537 293 -3 -2 -9 1 -12 6 -3 5 -17
13 -30 17 l-25 7 23 -33z"/>
</g>
</svg>
